<?xml version="1.0" standalone="no"?><svg xmlns:xlink="http://www.w3.org/1999/xlink" xmlns="http://www.w3.org/2000/svg" viewBox="0 0 500 500" preserveAspectRatio="xMaxYMax slice"><g transform="scale(0.9671179883945842)"><rect x="0" y="0" width="517" height="517" fill="#ffffff"/><polygon points="172.33,0 172.33,172.33 0,172.33" fill="#a6b5f4"/><rect x="172.33333333333334" y="0" width="172.33333333333334" height="172.33333333333334" fill="#ffffff"/><polygon points="258.5,0 258.5,86.17 172.33,86.17" fill="#5975ea"/><polygon points="344.67,0 344.67,86.17 258.5,86.17" fill="#617cea"/><polygon points="172.33,86.17 258.5,86.17 258.5,172.34" fill="#ffd2dd"/><polygon points="258.5,86.17 344.67,86.17 344.67,172.34" fill="#788fed"/><rect x="344.6666666666667" y="0" width="172.33333333333334" height="172.33333333333334" fill="#ffffff"/><polygon points="344.67,0 430.84000000000003,0 430.84000000000003,86.17" fill="#2f53e4"/><polygon points="517,0 517,86.17 430.83,86.17" fill="#9aabf2"/><polygon points="344.67,86.17 430.84000000000003,172.34 344.67,172.34" fill="#ffbccc"/><polygon points="430.83,86.17 517,86.17 517,172.34" fill="#fff6f8"/><rect x="0" y="172.33333333333334" width="172.33333333333334" height="172.33333333333334" fill="#ffffff"/><polygon points="0,172.33 86.17,258.5 0,258.5" fill="#b1bef5"/><polygon points="86.17,172.33 172.34,172.33 172.34,258.5" fill="#e7ebfc"/><polygon points="0,258.5 86.17,344.67 0,344.67" fill="#ff658a"/><polygon points="86.17,258.5 172.34,344.67 86.17,344.67" fill="#ff5880"/><polygon points="172.33,172.33 344.66,172.33 172.33,344.66" fill="#4e6ce8"/><polygon points="344.67,172.33 517,172.33 517,344.66" fill="#8095ee"/><polygon points="0,344.67 172.33,344.67 0,517" fill="#ffced9"/><polygon points="172.33,344.67 344.66,344.67 344.66,517" fill="#ff7a9a"/><polygon points="344.67,344.67 517,517 344.67,517" fill="#5b77ea"/></g></svg>